# xmcd
#
# Track frame offsets: 
#        150
#        11187
#        22175
#        36362
#        47450
#        60837
#        74337
#        86250
#        99385
#        109137
#
# Disc length: 1619 seconds
#
# Revision: 3
# Processed by: cddbd v1.5.2PL0 Copyright (c) Steve Scherf et al.
# Submitted via: ExactAudioCopyFreeDBPlugin 1.0
#
DISCID=7906510a
DTITLE=Various Artist - Soul Gold Oldies
DYEAR=1991
DGENRE=Soul
TTITLE0=Wilbert Harrison - Kansas City
TTITLE1=Lee Dorsey - Ya Ya
TTITLE2=Freddie Scott - Hey, Girl
TTITLE3=Little Eva - The Loco-Motion
TTITLE4=Buster Brown - Fannie Mae
TTITLE5=Joe Henderson - Snap Your Fingers
TTITLE6=Joe Jones - You Talk Too Much
TTITLE7=Don Gardner and Dee Dee Ford - I Need Your Loving
TTITLE8=The Essex - Easier Said Than Done
TTITLE9=Bobby Marchan - There's Something on Your Mind
EXTD=
EXTT0=
EXTT1=
EXTT2=
EXTT3=
EXTT4=
EXTT5=
EXTT6=
EXTT7=
EXTT8=
EXTT9=
PLAYORDER=
